<svg xmlns="http://www.w3.org/2000/svg" width="480" height="480" viewBox="0 0 480 480" fill="none"><g transform="translate(32 40)" fill="#FFFFFF">
  <path d="M46.6814 351.964C57.8676 363.842 76.2693 364.411 87.7738 353.576L100.671 367.271C81.4638 385.36 51.1787 384.115 33.0184 364.832C14.8581 345.549 15.43 315.243 34.6371 297.155L47.3909 310.697C35.8864 321.531 35.4951 340.086 46.6814 351.964Z"/>
  <path d="M369.373 48.0567C358.202 36.1949 339.506 35.5371 327.83 46.5332L315.101 33.0168C334.526 14.7224 365 15.759 383.176 35.0579C401.351 54.3568 400.56 84.8386 381.135 103.133L368.007 89.1942C379.683 78.1981 380.545 59.9186 369.373 48.0567Z"/>
  <path d="M381.558 102.737L100.671 367.27L87.7544 353.555L368.431 88.7978L381.558 102.737Z"/>
  <path d="M328.256 46.1373L47.259 310.823L34.6395 297.154L315.527 32.621L328.256 46.1373Z"/></g></svg>
